<svg xmlns="http://www.w3.org/2000/svg" xmlns:xlink="http://www.w3.org/1999/xlink" id="processonSvg1000" viewBox="32.0 10.0 709.0 474.0" width="709.0" height="474.0"><defs id="ProcessOnDefs1001"><marker id="ProcessOnMarker1048" markerUnits="userSpaceOnUse" orient="auto" markerWidth="16.23606797749979" markerHeight="10.550836550532098" viewBox="-1.0 -1.3763819204711736 16.23606797749979 10.550836550532098" refX="-1.0" refY="3.8990363547948754"><path id="ProcessOnPath1049" d="M12.0 3.8990363547948754L0.0 7.798072709589751V0.0Z" stroke="#323232" stroke-width="2.0" fill="#fff" transform="matrix(1.0,0.0,0.0,1.0,0.0,0.0)"/></marker><marker id="ProcessOnMarker1063" markerUnits="userSpaceOnUse" orient="auto" markerWidth="20.609529741924973" markerHeight="10.888175666885001" viewBox="-2.3047648709624866 -1.5914908829822711 20.609529741924973 10.888175666885001" refX="0.0" refY="3.8525969504602293"><path id="ProcessOnPath1064" d="M0 3.8525969504602293L8.0 0L16.0 3.8525969504602293L8.0 7.705193900920459Z" stroke="#323232" stroke-width="2.0" fill="#fff"/></marker><marker id="ProcessOnMarker1070" markerUnits="userSpaceOnUse" orient="auto" markerWidth="20.609529741924973" markerHeight="10.888175666885001" viewBox="-2.3047648709624866 -1.5914908829822711 20.609529741924973 10.888175666885001" refX="0.0" refY="3.8525969504602293"><path id="ProcessOnPath1071" d="M0 3.8525969504602293L8.0 0L16.0 3.8525969504602293L8.0 7.705193900920459Z" stroke="#323232" stroke-width="2.0" fill="#fff"/></marker><marker id="ProcessOnMarker1077" markerUnits="userSpaceOnUse" orient="auto" markerWidth="20.609529741924973" markerHeight="10.888175666885001" viewBox="-2.3047648709624866 -1.5914908829822711 20.609529741924973 10.888175666885001" refX="0.0" refY="3.8525969504602293"><path id="ProcessOnPath1078" d="M0 3.8525969504602293L8.0 0L16.0 3.8525969504602293L8.0 7.705193900920459Z" stroke="#323232" stroke-width="2.0" fill="#fff"/></marker><marker id="ProcessOnMarker1084" markerUnits="userSpaceOnUse" orient="auto" markerWidth="20.609529741924973" markerHeight="10.888175666885001" viewBox="-2.3047648709624866 -1.5914908829822711 20.609529741924973 10.888175666885001" refX="16.0" refY="3.8525969504602293"><path id="ProcessOnPath1085" d="M0 3.8525969504602293L8.0 0L16.0 3.8525969504602293L8.0 7.705193900920459Z" stroke="#323232" stroke-width="2.0" fill="#fff"/></marker><marker id="ProcessOnMarker1086" markerUnits="userSpaceOnUse" orient="auto" markerWidth="20.609529741924973" markerHeight="10.888175666885001" viewBox="-2.3047648709624866 -1.5914908829822711 20.609529741924973 10.888175666885001" refX="0.0" refY="3.8525969504602293"><path id="ProcessOnPath1087" d="M0 3.8525969504602293L8.0 0L16.0 3.8525969504602293L8.0 7.705193900920459Z" stroke="#323232" stroke-width="2.0" fill="#fff"/></marker><marker id="ProcessOnMarker1090" markerUnits="userSpaceOnUse" orient="auto" markerWidth="20.609529741924973" markerHeight="10.888175666885001" viewBox="-2.3047648709624866 -1.5914908829822711 20.609529741924973 10.888175666885001" refX="16.0" refY="3.8525969504602293"><path id="ProcessOnPath1091" d="M0 3.8525969504602293L8.0 0L16.0 3.8525969504602293L8.0 7.705193900920459Z" stroke="#323232" stroke-width="2.0" fill="#fff"/></marker><marker id="ProcessOnMarker1092" markerUnits="userSpaceOnUse" orient="auto" markerWidth="16.23606797749979" markerHeight="10.550836550532098" viewBox="-1.0 -1.3763819204711736 16.23606797749979 10.550836550532098" refX="-1.0" refY="3.8990363547948754"><path id="ProcessOnPath1093" d="M12.0 3.8990363547948754L0.0 7.798072709589751V0.0Z" stroke="#323232" stroke-width="2.0" fill="#fff" transform="matrix(1.0,0.0,0.0,1.0,0.0,0.0)"/></marker><marker id="ProcessOnMarker1096" markerUnits="userSpaceOnUse" orient="auto" markerWidth="20.609529741924973" markerHeight="10.888175666885001" viewBox="-2.3047648709624866 -1.5914908829822711 20.609529741924973 10.888175666885001" refX="16.0" refY="3.8525969504602293"><path id="ProcessOnPath1097" d="M0 3.8525969504602293L8.0 0L16.0 3.8525969504602293L8.0 7.705193900920459Z" stroke="#323232" stroke-width="2.0" fill="#fff"/></marker><marker id="ProcessOnMarker1098" markerUnits="userSpaceOnUse" orient="auto" markerWidth="16.23606797749979" markerHeight="10.550836550532098" viewBox="-1.0 -1.3763819204711736 16.23606797749979 10.550836550532098" refX="-1.0" refY="3.8990363547948754"><path id="ProcessOnPath1099" d="M12.0 3.8990363547948754L0.0 7.798072709589751V0.0Z" stroke="#323232" stroke-width="2.0" fill="#fff" transform="matrix(1.0,0.0,0.0,1.0,0.0,0.0)"/></marker><marker id="ProcessOnMarker1109" markerUnits="userSpaceOnUse" orient="auto" markerWidth="20.609529741924973" markerHeight="10.888175666885001" viewBox="-2.3047648709624866 -1.5914908829822711 20.609529741924973 10.888175666885001" refX="16.0" refY="3.8525969504602293"><path id="ProcessOnPath1110" d="M0 3.8525969504602293L8.0 0L16.0 3.8525969504602293L8.0 7.705193900920459Z" stroke="#323232" stroke-width="2.0" fill="#fff"/></marker><marker id="ProcessOnMarker1111" markerUnits="userSpaceOnUse" orient="auto" markerWidth="16.23606797749979" markerHeight="10.550836550532098" viewBox="-1.0 -1.3763819204711736 16.23606797749979 10.550836550532098" refX="-1.0" refY="3.8990363547948754"><path id="ProcessOnPath1112" d="M12.0 3.8990363547948754L0.0 7.798072709589751V0.0Z" stroke="#323232" stroke-width="2.0" fill="#fff" transform="matrix(1.0,0.0,0.0,1.0,0.0,0.0)"/></marker></defs><g id="ProcessOnG1002"><path id="ProcessOnPath1003" d="M32.0 10.0H741.0V484.0H32.0V10.0Z" fill="none"/><g id="ProcessOnG1004"><g id="ProcessOnG1005" transform="matrix(1.0,0.0,0.0,1.0,525.0,30.0)" opacity="1.0"><path id="ProcessOnPath1006" d="M18.0 0.0Q9.0 0.0 9.0 9.0L9.0 208.0Q9.0 217.0 0.0 217.0Q9.0 217.0 9.0 226.0L9.0 425.0Q9.0 434.0 18.0 434.0" stroke="#323232" stroke-width="2.0" stroke-dasharray="none" opacity="1.0" fill="none"/><path id="ProcessOnPath1007" d="M178.0 434.0Q187.0 434.0 187.0 425.0L187.0 226.0Q187.0 217.0 196.0 217.0Q187.0 217.0 187.0 208.0L187.0 9.0Q187.0 0.0 178.0 0.0" stroke="#323232" stroke-width="2.0" stroke-dasharray="none" opacity="1.0" fill="none"/><path id="ProcessOnPath1008" d="M0.0 0.0L196.0 0.0L196.0 434.0L0.0 434.0Z" stroke="#323232" stroke-width="0.0" stroke-dasharray="none" opacity="1.0" fill="none"/></g><g id="ProcessOnG1009" transform="matrix(1.0,0.0,0.0,1.0,196.0,81.0)" opacity="1.0"><path id="ProcessOnPath1010" d="M0.0 0.0L100.0 0.0L100.0 70.0L0.0 70.0Z" stroke="#323232" stroke-width="2.0" stroke-dasharray="none" opacity="1.0" fill="#ffffff"/><g id="ProcessOnG1011" transform="matrix(1.0,0.0,0.0,1.0,10.0,26.875)"><text id="ProcessOnText1012" fill="#000000" font-weight="normal" font-style="normal" text-decoration="none" font-family="微软雅黑" text-anchor="middle" font-size="13" x="39.0" y="13.325">Users</text></g></g><g id="ProcessOnG1013" transform="matrix(1.0,0.0,0.0,1.0,369.0,212.0)" opacity="1.0"><path id="ProcessOnPath1014" d="M0.0 0.0L100.0 0.0L100.0 70.0L0.0 70.0Z" stroke="#323232" stroke-width="2.0" stroke-dasharray="none" opacity="1.0" fill="#ffffff"/><g id="ProcessOnG1015" transform="matrix(1.0,0.0,0.0,1.0,10.0,26.875)"><text id="ProcessOnText1016" fill="#000000" font-weight="normal" font-style="normal" text-decoration="none" font-family="微软雅黑" text-anchor="middle" font-size="13" x="39.0" y="13.325">Runner</text></g></g><g id="ProcessOnG1017" transform="matrix(1.0,0.0,0.0,1.0,576.0,267.0)" opacity="1.0"><path id="ProcessOnPath1018" d="M0.0 0.0L100.0 0.0L100.0 70.0L0.0 70.0Z" stroke="#323232" stroke-width="2.0" stroke-dasharray="none" opacity="1.0" fill="#ffffff"/><g id="ProcessOnG1019" transform="matrix(1.0,0.0,0.0,1.0,10.0,26.875)"><text id="ProcessOnText1020" fill="#000000" font-weight="normal" font-style="normal" text-decoration="none" font-family="微软雅黑" text-anchor="middle" font-size="13" x="39.0" y="13.325">Result</text></g></g><g id="ProcessOnG1021" transform="matrix(1.0,0.0,0.0,1.0,576.0,386.0)" opacity="1.0"><path id="ProcessOnPath1022" d="M0.0 0.0L100.0 0.0L100.0 70.0L0.0 70.0Z" stroke="#323232" stroke-width="2.0" stroke-dasharray="none" opacity="1.0" fill="#ffffff"/><g id="ProcessOnG1023" transform="matrix(1.0,0.0,0.0,1.0,10.0,26.875)"><text id="ProcessOnText1024" fill="#000000" font-weight="normal" font-style="normal" text-decoration="none" font-family="微软雅黑" text-anchor="middle" font-size="13" x="39.0" y="13.325">Analysis</text></g></g><g id="ProcessOnG1025" transform="matrix(1.0,0.0,0.0,1.0,369.0,81.0)" opacity="1.0"><path id="ProcessOnPath1026" d="M0.0 0.0L100.0 0.0L100.0 70.0L0.0 70.0Z" stroke="#323232" stroke-width="2.0" stroke-dasharray="none" opacity="1.0" fill="#ffffff"/><g id="ProcessOnG1027" transform="matrix(1.0,0.0,0.0,1.0,10.0,26.875)"><text id="ProcessOnText1028" fill="#000000" font-weight="normal" font-style="normal" text-decoration="none" font-family="微软雅黑" text-anchor="middle" font-size="13" x="39.0" y="13.325">experiment</text></g></g><g id="ProcessOnG1029" transform="matrix(1.0,0.0,0.0,1.0,573.0,146.0)" opacity="1.0"><path id="ProcessOnPath1030" d="M0.0 0.0L100.0 0.0L100.0 70.0L0.0 70.0Z" stroke="#323232" stroke-width="2.0" stroke-dasharray="none" opacity="1.0" fill="#ffffff"/><g id="ProcessOnG1031" transform="matrix(1.0,0.0,0.0,1.0,10.0,26.875)"><text id="ProcessOnText1032" fill="#000000" font-weight="normal" font-style="normal" text-decoration="none" font-family="微软雅黑" text-anchor="middle" font-size="13" x="39.0" y="13.325">Container</text></g></g><g id="ProcessOnG1033" transform="matrix(1.0,0.0,0.0,1.0,199.0,216.0)" opacity="1.0"><path id="ProcessOnPath1034" d="M0.0 0.0L100.0 0.0L100.0 70.0L0.0 70.0Z" stroke="#323232" stroke-width="2.0" stroke-dasharray="none" opacity="1.0" fill="#ffffff"/><g id="ProcessOnG1035" transform="matrix(1.0,0.0,0.0,1.0,10.0,18.75)"><text id="ProcessOnText1036" fill="#000000" font-weight="normal" font-style="normal" text-decoration="none" font-family="微软雅黑" text-anchor="middle" font-size="13" x="39.0" y="13.325">configuratio</text><text id="ProcessOnText1037" fill="#000000" font-weight="normal" font-style="normal" text-decoration="none" font-family="微软雅黑" text-anchor="middle" font-size="13" x="39.0" y="29.575">n</text></g></g><g id="ProcessOnG1038" transform="matrix(1.0,0.0,0.0,1.0,52.0,216.0)" opacity="1.0"><path id="ProcessOnPath1039" d="M0.0 0.0L100.0 0.0L100.0 70.0L0.0 70.0Z" stroke="#323232" stroke-width="2.0" stroke-dasharray="none" opacity="1.0" fill="#ffffff"/><g id="ProcessOnG1040" transform="matrix(1.0,0.0,0.0,1.0,10.0,26.875)"><text id="ProcessOnText1041" fill="#000000" font-weight="normal" font-style="normal" text-decoration="none" font-family="微软雅黑" text-anchor="middle" font-size="13" x="39.0" y="13.325">API_Auth</text></g></g><g id="ProcessOnG1042" transform="matrix(1.0,0.0,0.0,1.0,568.0,37.0)" opacity="1.0"><path id="ProcessOnPath1043" d="M0.0 35.0C0.0 -11.666666666666666 100.0 -11.666666666666666 100.0 35.0C100.0 81.66666666666667 0.0 81.66666666666667 0.0 35.0Z" stroke="#323232" stroke-width="2.0" stroke-dasharray="10.0 4.0" opacity="1.0" fill="#ffffff"/><g id="ProcessOnG1044" transform="matrix(1.0,0.0,0.0,1.0,10.0,26.875)"><text id="ProcessOnText1045" fill="#000000" font-weight="normal" font-style="normal" text-decoration="none" font-family="微软雅黑" text-anchor="middle" font-size="13" x="39.0" y="13.325">code</text></g></g><g id="ProcessOnG1046"><path id="ProcessOnPath1047" d="M469.0 247.0L497.0 247.0L497.0 247.0L509.7639320225002 247.0" stroke="#323232" stroke-width="2.0" stroke-dasharray="none" fill="none" marker-end="url(#ProcessOnMarker1048)"/><g id="ProcessOnG1050" transform="matrix(1.0,0.0,0.0,1.0,489.38196601125014,238.875)"><path id="ProcessOnPath1051" d="M0 0H19.0V16.25H0Z" fill="#fff" transform="matrix(1.0,0.0,0.0,1.0,-9.5,0.0)"/><text id="ProcessOnText1052" fill="#000000" font-weight="normal" font-style="normal" text-decoration="none" font-family="微软雅黑" text-anchor="middle" font-size="13" x="0.0" y="13.325">1:1</text></g></g><g id="ProcessOnG1053" transform="matrix(1.0,0.0,0.0,1.0,52.0,81.0)" opacity="1.0"><path id="ProcessOnPath1054" d="M0.0 0.0L100.0 0.0L100.0 70.0L0.0 70.0Z" stroke="#323232" stroke-width="2.0" stroke-dasharray="none" opacity="1.0" fill="#ffffff"/><g id="ProcessOnG1055" transform="matrix(1.0,0.0,0.0,1.0,10.0,26.875)"><text id="ProcessOnText1056" fill="#000000" font-weight="normal" font-style="normal" text-decoration="none" font-family="微软雅黑" text-anchor="middle" font-size="13" x="39.0" y="13.325">API_Object</text></g></g><g id="ProcessOnG1057" transform="matrix(1.0,0.0,0.0,1.0,369.0,357.0)" opacity="1.0"><path id="ProcessOnPath1058" d="M0.0 0.0L100.0 0.0L100.0 70.0L0.0 70.0Z" stroke="#323232" stroke-width="2.0" stroke-dasharray="none" opacity="1.0" fill="#ffffff"/><g id="ProcessOnG1059" transform="matrix(1.0,0.0,0.0,1.0,10.0,26.875)"><text id="ProcessOnText1060" fill="#000000" font-weight="normal" font-style="normal" text-decoration="none" font-family="微软雅黑" text-anchor="middle" font-size="13" x="39.0" y="13.325">report</text></g></g><g id="ProcessOnG1061"><path id="ProcessOnPath1062" d="M419.0 151.0L419.0 181.5L419.0 181.5L419.0 193.6952351290375" stroke="#323232" stroke-width="2.0" stroke-dasharray="none" fill="none" marker-end="url(#ProcessOnMarker1063)"/><g id="ProcessOnG1065" transform="matrix(1.0,0.0,0.0,1.0,419.0,164.22261756451877)"><path id="ProcessOnPath1066" d="M0 0H22.0V16.25H0Z" fill="#fff" transform="matrix(1.0,0.0,0.0,1.0,-11.0,0.0)"/><text id="ProcessOnText1067" fill="#000000" font-weight="normal" font-style="normal" text-decoration="none" font-family="微软雅黑" text-anchor="middle" font-size="13" x="0.0" y="13.325">1:N</text></g></g><g id="ProcessOnG1068"><path id="ProcessOnPath1069" d="M419.0 282.0L419.0 319.5L419.0 319.5L419.0 338.69523512903754" stroke="#323232" stroke-width="2.0" stroke-dasharray="none" fill="none" marker-end="url(#ProcessOnMarker1070)"/><g id="ProcessOnG1072" transform="matrix(1.0,0.0,0.0,1.0,419.0,302.22261756451877)"><path id="ProcessOnPath1073" d="M0 0H19.0V16.25H0Z" fill="#fff" transform="matrix(1.0,0.0,0.0,1.0,-9.5,0.0)"/><text id="ProcessOnText1074" fill="#000000" font-weight="normal" font-style="normal" text-decoration="none" font-family="微软雅黑" text-anchor="middle" font-size="13" x="0.0" y="13.325">1:1</text></g></g><g id="ProcessOnG1075"><path id="ProcessOnPath1076" d="M296.0 116.0L332.5 116.0L332.5 116.0L350.69523512903754 116.0" stroke="#323232" stroke-width="2.0" stroke-dasharray="none" fill="none" marker-end="url(#ProcessOnMarker1077)"/><g id="ProcessOnG1079" transform="matrix(1.0,0.0,0.0,1.0,323.34761756451877,107.875)"><path id="ProcessOnPath1080" d="M0 0H22.0V16.25H0Z" fill="#fff" transform="matrix(1.0,0.0,0.0,1.0,-11.0,0.0)"/><text id="ProcessOnText1081" fill="#000000" font-weight="normal" font-style="normal" text-decoration="none" font-family="微软雅黑" text-anchor="middle" font-size="13" x="0.0" y="13.325">1:N</text></g></g><g id="ProcessOnG1082"><path id="ProcessOnPath1083" d="M102.0 169.3047648709625L102.0 183.5L102.0 183.5L102.0 197.6952351290375" stroke="#323232" stroke-width="2.0" stroke-dasharray="none" fill="none" marker-start="url(#ProcessOnMarker1084)" marker-end="url(#ProcessOnMarker1086)"/></g><g id="ProcessOnG1088"><path id="ProcessOnPath1089" d="M170.3047648709625 251.0L175.5 251.0L175.5 251.0L183.7639320225002 251.0" stroke="#323232" stroke-width="2.0" stroke-dasharray="none" fill="none" marker-start="url(#ProcessOnMarker1090)" marker-end="url(#ProcessOnMarker1092)"/></g><g id="ProcessOnG1094"><path id="ProcessOnPath1095" d="M102.0 197.6952351290375L102.0 183.5L246.0 183.5L246.0 166.2360679774998" stroke="#323232" stroke-width="2.0" stroke-dasharray="none" fill="none" marker-start="url(#ProcessOnMarker1096)" marker-end="url(#ProcessOnMarker1098)"/><g id="ProcessOnG1100" transform="matrix(1.0,0.0,0.0,1.0,175.53434844673134,175.375)"><path id="ProcessOnPath1101" d="M0 0H25.0V16.25H0Z" fill="#fff" transform="matrix(1.0,0.0,0.0,1.0,-12.5,0.0)"/><text id="ProcessOnText1102" fill="#000000" font-weight="normal" font-style="normal" text-decoration="none" font-family="微软雅黑" text-anchor="middle" font-size="13" x="0.0" y="13.325">N:N</text></g></g><g id="ProcessOnG1103" transform="matrix(1.0,0.0,0.0,1.0,52.0,363.75)" opacity="1.0"><path id="ProcessOnPath1104" d="M0.0 0.0L247.0 0.0L247.0 70.0L0.0 70.0Z" stroke="#323232" stroke-width="2.0" stroke-dasharray="none" opacity="1.0" fill="#ffffff"/><g id="ProcessOnG1105" transform="matrix(1.0,0.0,0.0,1.0,10.0,26.875)"><text id="ProcessOnText1106" fill="#000000" font-weight="normal" font-style="normal" text-decoration="none" font-family="微软雅黑" text-anchor="middle" font-size="13" x="112.5" y="13.325">action_list</text></g></g><g id="ProcessOnG1107"><path id="ProcessOnPath1108" d="M317.30476487096246 398.75L334.0 398.75L334.0 247.0L353.7639320225002 247.0" stroke="#323232" stroke-width="2.0" stroke-dasharray="none" fill="none" marker-start="url(#ProcessOnMarker1109)" marker-end="url(#ProcessOnMarker1111)"/><g id="ProcessOnG1113" transform="matrix(1.0,0.0,0.0,1.0,334.0,313.2156515532687)"><path id="ProcessOnPath1114" d="M0 0H22.0V16.25H0Z" fill="#fff" transform="matrix(1.0,0.0,0.0,1.0,-11.0,0.0)"/><text id="ProcessOnText1115" fill="#000000" font-weight="normal" font-style="normal" text-decoration="none" font-family="微软雅黑" text-anchor="middle" font-size="13" x="0.0" y="13.325">N:1</text></g></g></g></g></svg>